<?xml version="1.0" encoding="UTF-8" standalone="no"?>
<svg
   width="512"
   height="512"
   viewBox="0 0 512 512"
   version="1.1"
   id="svg8"
   inkscape:version="1.1.1 (3bf5ae0d25, 2021-09-20)"
   sodipodi:docname="ComplexTrack.svg"
   xmlns:inkscape="http://www.inkscape.org/namespaces/inkscape"
   xmlns:sodipodi="http://sodipodi.sourceforge.net/DTD/sodipodi-0.dtd"
   xmlns="http://www.w3.org/2000/svg"
   xmlns:svg="http://www.w3.org/2000/svg"
   xmlns:rdf="http://www.w3.org/1999/02/22-rdf-syntax-ns#"
   xmlns:cc="http://creativecommons.org/ns#"
   xmlns:dc="http://purl.org/dc/elements/1.1/">
  <defs
     id="defs2">
    <marker
       style="overflow:visible"
       id="Arrow2Lend"
       refX="0"
       refY="0"
       orient="auto"
       inkscape:stockid="Arrow2Lend"
       inkscape:isstock="true">
      <path
         transform="matrix(-1.1,0,0,-1.1,-1.1,0)"
         d="M 8.7185878,4.0337352 -2.2072895,0.01601326 8.7185884,-4.0017078 c -1.7454984,2.3720609 -1.7354408,5.6174519 -6e-7,8.035443 z"
         style="fill:#00ffff;fill-opacity:1;fill-rule:evenodd;stroke:#000000;stroke-width:0.625;stroke-linejoin:round;stroke-opacity:1"
         id="path993" />
    </marker>
    <marker
       style="overflow:visible"
       id="Arrow1Lend"
       refX="0"
       refY="0"
       orient="auto"
       inkscape:stockid="Arrow1Lend"
       inkscape:isstock="true">
      <path
         transform="matrix(-0.8,0,0,-0.8,-10,0)"
         style="fill:#000000;fill-opacity:1;fill-rule:evenodd;stroke:#000000;stroke-width:1pt;stroke-opacity:1"
         d="M 0,0 5,-5 -12.5,0 5,5 Z"
         id="path975" />
    </marker>
  </defs>
  <sodipodi:namedview
     id="base"
     pagecolor="#ffffff"
     bordercolor="#666666"
     borderopacity="1.0"
     inkscape:pageopacity="0.0"
     inkscape:pageshadow="2"
     inkscape:zoom="0.93128817"
     inkscape:cx="119.18975"
     inkscape:cy="351.66344"
     inkscape:document-units="px"
     inkscape:current-layer="layer5"
     inkscape:document-rotation="0"
     showgrid="false"
     units="px"
     inkscape:window-width="1920"
     inkscape:window-height="1017"
     inkscape:window-x="1912"
     inkscape:window-y="-8"
     inkscape:window-maximized="1"
     showguides="false"
     inkscape:pagecheckerboard="0"
     scale-x="1"
     viewbox-width="512"
     viewbox-height="512"
     inkscape:lockguides="false" />
  <metadata
     id="metadata5">
    <rdf:RDF>
      <cc:Work
         rdf:about="">
        <dc:format>image/svg+xml</dc:format>
        <dc:type
           rdf:resource="http://purl.org/dc/dcmitype/StillImage" />
      </cc:Work>
    </rdf:RDF>
  </metadata>
  <g
     inkscape:groupmode="layer"
     id="layer2"
     inkscape:label="Track"
     style="display:none"
     sodipodi:insensitive="true">
    <path
       style="display:none;fill:none;stroke:#000000;stroke-width:30.634;stroke-linecap:butt;stroke-linejoin:miter;stroke-miterlimit:4;stroke-dasharray:none;stroke-opacity:1"
       d="M 66.307318,58.038745 C 108.57272,14.294991 198.30618,19.168216 248.72303,53.19793 259.46875,60.450936 263.65775,76.747574 262.308,89.641555 258.43711,126.61962 165.38209,184.82759 202.54862,183.82259 282.18547,181.66918 291.62527,171.07323 318.13828,148.54188 345.12766,125.6057 333.86918,59.594956 369.02188,55.26103 390.08011,52.664791 403.41876,82.732143 412.16334,102.06403 453.17361,192.72659 520.12368,335.55961 443.41592,398.94305 394.36363,439.47484 323.99983,336.63948 260.74231,343.52707 188.42835,351.40074 129.78717,492.40029 70.442727,450.33438 34.990206,425.2041 66.230112,356.16301 93.002444,321.93357 111.89694,297.77624 147.07674,290.82854 177.11719,284.65201 209.44026,278.00615 253.01173,309.37357 276.10813,285.80443 286.48392,275.21627 288.34239,247.12999 274.68961,241.35352 200.94919,210.15404 115.75008,288.55298 67.728175,239.2191 25.601575,195.94159 24.341624,101.4723 66.307318,58.038745 Z"
       id="path2953"
       sodipodi:nodetypes="aaassaaaaaaaassa"
       sodipodi:insensitive="true" />
  </g>
  <g
     inkscape:groupmode="layer"
     id="layer3"
     inkscape:label="PowerUpsTime"
     style="display:none"
     sodipodi:insensitive="true">
    <ellipse
       style="display:inline;fill:#008000;stroke:#b3b3b3;stroke-width:0.345958;stroke-miterlimit:4;stroke-dasharray:none;stop-color:#000000"
       id="path852-7-3-6"
       cx="370.1864"
       cy="388.24274"
       rx="10.591736"
       ry="9.7844038" />
    <ellipse
       style="display:inline;fill:#008000;stroke:#b3b3b3;stroke-width:0.345958;stroke-miterlimit:4;stroke-dasharray:none;stop-color:#000000"
       id="path852-7-3-6-2"
       cx="465.89862"
       cy="235.08522"
       rx="10.591736"
       ry="9.7844038" />
    <ellipse
       style="display:inline;fill:#008000;stroke:#b3b3b3;stroke-width:0.345958;stroke-miterlimit:4;stroke-dasharray:none;stop-color:#000000"
       id="path852-7-3-6-3"
       cx="60.70023"
       cy="383.21939"
       rx="10.591736"
       ry="9.7844038" />
    <ellipse
       style="display:inline;fill:#008000;stroke:#b3b3b3;stroke-width:0.345958;stroke-miterlimit:4;stroke-dasharray:none;stop-color:#000000"
       id="path852-7-3-6-3-6"
       cx="181.12756"
       cy="394.25504"
       rx="10.591736"
       ry="9.7844038" />
  </g>
  <g
     inkscape:groupmode="layer"
     id="layer7"
     inkscape:label="PowerUpsSpeed"
     style="display:none"
     sodipodi:insensitive="true">
    <ellipse
       style="display:inline;fill:#008000;stroke:#b3b3b3;stroke-width:0.345958;stroke-miterlimit:4;stroke-dasharray:none;stop-color:#000000"
       id="path852-7-3-6-5"
       cx="432.7164"
       cy="145.50865"
       rx="10.591736"
       ry="9.7844038" />
    <ellipse
       style="display:inline;fill:#008000;stroke:#b3b3b3;stroke-width:0.345958;stroke-miterlimit:4;stroke-dasharray:none;stop-color:#000000"
       id="path852-7-3-6-5-5"
       cx="225.49411"
       cy="39.729919"
       rx="10.591736"
       ry="9.7844038" />
    <ellipse
       style="display:inline;fill:#008000;stroke:#b3b3b3;stroke-width:0.345958;stroke-miterlimit:4;stroke-dasharray:none;stop-color:#000000"
       id="path852-7-3-6-7-6"
       cx="199.0025"
       cy="282.92554"
       rx="10.591736"
       ry="9.7844038" />
  </g>
  <g
     inkscape:label="ObstaclesTime"
     inkscape:groupmode="layer"
     id="layer1"
     style="display:none"
     sodipodi:insensitive="true">
    <ellipse
       style="display:inline;fill:#ff0000;stroke:#b3b3b3;stroke-width:0.336422;stroke-miterlimit:4;stroke-dasharray:none;stop-color:#000000"
       id="path852-8-9-3-7"
       cx="50.650688"
       cy="223.87416"
       rx="10.265724"
       ry="9.48283" />
    <ellipse
       style="display:inline;fill:#ff0000;stroke:#b3b3b3;stroke-width:0.336422;stroke-miterlimit:4;stroke-dasharray:none;stop-color:#000000"
       id="path852-8-9-3-7-5"
       cx="452.20242"
       cy="191.31535"
       rx="10.265724"
       ry="9.48283" />
    <ellipse
       style="display:inline;fill:#ff0000;stroke:#b3b3b3;stroke-width:0.336422;stroke-miterlimit:4;stroke-dasharray:none;stop-color:#000000"
       id="path852-8-9-3-7-5-6"
       cx="481.82492"
       cy="331.50052"
       rx="10.265724"
       ry="9.48283" />
    <ellipse
       style="display:inline;fill:#ff0000;stroke:#b3b3b3;stroke-width:0.336422;stroke-miterlimit:4;stroke-dasharray:none;stop-color:#000000"
       id="path852-8-9-3-7-5-6-5"
       cx="301.7326"
       cy="357.56924"
       rx="10.265724"
       ry="9.48283" />
    <ellipse
       style="display:inline;fill:#ff0000;stroke:#b3b3b3;stroke-width:0.336422;stroke-miterlimit:4;stroke-dasharray:none;stop-color:#000000"
       id="path852-8-9-3-7-5-6-3"
       cx="92.286751"
       cy="462.85068"
       rx="10.265724"
       ry="9.48283" />
    <ellipse
       style="display:inline;fill:#ff0000;stroke:#b3b3b3;stroke-width:0.336422;stroke-miterlimit:4;stroke-dasharray:none;stop-color:#000000"
       id="path852-8-9-3-7-5-7"
       cx="362.71478"
       cy="54.234867"
       rx="10.265724"
       ry="9.48283" />
    <ellipse
       style="display:inline;fill:#ff0000;stroke:#b3b3b3;stroke-width:0.336422;stroke-miterlimit:4;stroke-dasharray:none;stop-color:#000000"
       id="path852-8-9-3-7-5-7-9"
       cx="46.172604"
       cy="105.23058"
       rx="10.265724"
       ry="9.48283" />
  </g>
  <g
     inkscape:groupmode="layer"
     id="layer8"
     inkscape:label="ObstaclesInvCont"
     style="display:none"
     sodipodi:insensitive="true">
    <ellipse
       style="display:inline;fill:#ff0000;stroke:#b3b3b3;stroke-width:0.336422;stroke-miterlimit:4;stroke-dasharray:none;stop-color:#000000"
       id="path852-8-9-3-7-3"
       cx="242.44684"
       cy="124.58445"
       rx="10.265724"
       ry="9.48283" />
    <ellipse
       style="display:inline;fill:#ff0000;stroke:#b3b3b3;stroke-width:0.336422;stroke-miterlimit:4;stroke-dasharray:none;stop-color:#000000"
       id="path852-8-9-3-7-3-3"
       cx="97.765923"
       cy="309.51974"
       rx="10.265724"
       ry="9.48283" />
  </g>
  <g
     inkscape:groupmode="layer"
     id="layer4"
     inkscape:label="Start"
     style="display:none"
     sodipodi:insensitive="true">
    <path
       style="display:none;fill:#00ffff;stroke:#5e2911;stroke-width:2.24551;stroke-linecap:butt;stroke-linejoin:miter;stroke-miterlimit:4;stroke-dasharray:none;stroke-opacity:1;marker-end:url(#Arrow2Lend)"
       d="M 165.24689,246.02372 205.14639,237.38737"
       id="path970"
       sodipodi:nodetypes="cc"
       sodipodi:insensitive="true" />
  </g>
  <g
     inkscape:groupmode="layer"
     id="layer5"
     inkscape:label="Routes"
     style="display:inline">
    <path
       style="display:inline;fill:none;stroke:#000000;stroke-width:1px;stroke-linecap:butt;stroke-linejoin:miter;stroke-opacity:1"
       d="M 165.24689,246.02372 172.34193,244.01684 182.00596,241.06395 196.23357,236.50037 210.99806,231.9368 227.91012,228.44701 246.7013,228.17857 261.73424,229.52079 271.39827,231.66836 280.52541,236.50037 285.62588,243.21151 287.77344,252.47287 287.90766,261.73424 286.29699,270.86138 282.94142,280.39119 276.23029,288.04189 267.23737,293.00812 253.41243,295.55836 237.57416,296.63214 219.58832,294.88724 201.87092,292.20279 186.16687,290.59212 169.65748,292.06857 148.98718,296.76636 125.36399,304.81972 101.87502,317.30243 84.560293,334.34871 69.527352,353.40833 57.178865,373.9444 49.393949,397.03071 47.649054,421.72768 50.601953,435.95529 58.252646,448.03533 67.514011,455.95447 80.533612,460.24959 97.043002,460.11537 113.41817,455.01491 137.04136,444.27709 156.50365,426.02281 175.83172,401.7285 210.19273,359.98525 228.04434,346.02609 243.07729,339.98607 258.11023,338.64384 273.41161,339.85184 287.50499,345.75764 309.24907,359.17991 335.42249,376.22619 367.77016,397.03071 386.29289,407.76852 402.66806,414.34543 415.15077,415.28499 427.09659,414.21121 437.02907,409.91608 446.29043,401.99695 455.82024,390.05113 463.20249,376.09197 470.45052,350.18699 476.22209,311.93352 476.75898,266.8347 468.30295,223.48077 456.89403,188.04598 442.26375,148.18185 423.74102,107.64659 405.21829,73.554032 392.60136,59.192205 384.27955,52.48107 374.61552,48.857058 365.75682,49.259726 356.36123,53.689075 350.45543,59.46065 344.68386,69.527352 339.98607,84.560293 334.8856,107.24393 329.91936,129.92756 323.6109,143.7525 312.20197,156.10098 295.15569,166.03346 270.9956,175.83172 250.32531,181.46907 231.53413,185.89842 219.58832,187.77754 209.25317,187.50909 203.07892,186.03264 197.44157,181.73752 195.02556,177.03972 197.97846,161.73834 205.09227,151.26897 216.50119,140.53115 235.82926,126.0351 255.42577,108.72038 264.82136,91.40565 266.96892,79.057162 266.43203,70.332688 262.53958,61.47399 253.68088,53.554852 233.6817,42.414369 210.99806,34.361008 174.75794,28.186764 145.49739,26.307647 118.65285,28.052542 90.063423,37.179684 68.587793,50.736176 54.762856,67.782457 46.575272,87.244746 39.729915,109.65993 35.97168,133.28313 35.837457,153.8192 39.729915,180.52951 45.367268,203.61582 52.749516,221.06476 62.413549,237.30571 71.272247,248.17775 79.862499,253.94932 94.761217,257.17067 109.25727,257.84178 128.18267,256.36533 150.06096,251.26487 Z"
       id="path253" />
  </g>
</svg>
