<?xml version="1.0" encoding="UTF-8" standalone="no"?>
<svg
   width="512"
   height="512"
   viewBox="0 0 512 512"
   version="1.1"
   id="svg8"
   inkscape:version="1.1.1 (3bf5ae0d25, 2021-09-20)"
   sodipodi:docname="ComplexTrack.svg"
   xmlns:inkscape="http://www.inkscape.org/namespaces/inkscape"
   xmlns:sodipodi="http://sodipodi.sourceforge.net/DTD/sodipodi-0.dtd"
   xmlns="http://www.w3.org/2000/svg"
   xmlns:svg="http://www.w3.org/2000/svg"
   xmlns:rdf="http://www.w3.org/1999/02/22-rdf-syntax-ns#"
   xmlns:cc="http://creativecommons.org/ns#"
   xmlns:dc="http://purl.org/dc/elements/1.1/">
  <defs
     id="defs2">
    <marker
       style="overflow:visible"
       id="Arrow2Lend"
       refX="0"
       refY="0"
       orient="auto"
       inkscape:stockid="Arrow2Lend"
       inkscape:isstock="true">
      <path
         transform="matrix(-1.1,0,0,-1.1,-1.1,0)"
         d="M 8.7185878,4.0337352 -2.2072895,0.01601326 8.7185884,-4.0017078 c -1.7454984,2.3720609 -1.7354408,5.6174519 -6e-7,8.035443 z"
         style="fill:#00ffff;fill-opacity:1;fill-rule:evenodd;stroke:#000000;stroke-width:0.625;stroke-linejoin:round;stroke-opacity:1"
         id="path993" />
    </marker>
    <marker
       style="overflow:visible"
       id="Arrow1Lend"
       refX="0"
       refY="0"
       orient="auto"
       inkscape:stockid="Arrow1Lend"
       inkscape:isstock="true">
      <path
         transform="matrix(-0.8,0,0,-0.8,-10,0)"
         style="fill:#000000;fill-opacity:1;fill-rule:evenodd;stroke:#000000;stroke-width:1pt;stroke-opacity:1"
         d="M 0,0 5,-5 -12.5,0 5,5 Z"
         id="path975" />
    </marker>
  </defs>
  <sodipodi:namedview
     id="base"
     pagecolor="#ffffff"
     bordercolor="#666666"
     borderopacity="1.0"
     inkscape:pageopacity="0.0"
     inkscape:pageshadow="2"
     inkscape:zoom="1.8625763"
     inkscape:cx="183.61664"
     inkscape:cy="224.15189"
     inkscape:document-units="px"
     inkscape:current-layer="layer5"
     inkscape:document-rotation="0"
     showgrid="false"
     units="px"
     inkscape:window-width="1920"
     inkscape:window-height="1017"
     inkscape:window-x="-8"
     inkscape:window-y="-8"
     inkscape:window-maximized="1"
     showguides="false"
     inkscape:pagecheckerboard="0"
     scale-x="1"
     viewbox-width="512"
     viewbox-height="512"
     inkscape:lockguides="false" />
  <metadata
     id="metadata5">
    <rdf:RDF>
      <cc:Work
         rdf:about="">
        <dc:format>image/svg+xml</dc:format>
        <dc:type
           rdf:resource="http://purl.org/dc/dcmitype/StillImage" />
      </cc:Work>
    </rdf:RDF>
  </metadata>
  <g
     inkscape:groupmode="layer"
     id="layer2"
     inkscape:label="Track"
     style="display:inline"
     sodipodi:insensitive="true">
    <path
       style="fill:none;stroke:#000000;stroke-width:30.634;stroke-linecap:butt;stroke-linejoin:miter;stroke-miterlimit:4;stroke-dasharray:none;stroke-opacity:1"
       d="M 66.307318,58.038745 C 108.57272,14.294991 198.30618,19.168216 248.72303,53.19793 259.46875,60.450936 263.65775,76.747574 262.308,89.641555 258.43711,126.61962 165.38209,184.82759 202.54862,183.82259 282.18547,181.66918 291.62527,171.07323 318.13828,148.54188 345.12766,125.6057 333.86918,59.594956 369.02188,55.26103 390.08011,52.664791 403.41876,82.732143 412.16334,102.06403 453.17361,192.72659 520.12368,335.55961 443.41592,398.94305 394.36363,439.47484 323.99983,336.63948 260.74231,343.52707 188.42835,351.40074 129.78717,492.40029 70.442727,450.33438 34.990206,425.2041 66.230112,356.16301 93.002444,321.93357 111.89694,297.77624 147.07674,290.82854 177.11719,284.65201 209.44026,278.00615 253.01173,309.37357 276.10813,285.80443 286.48392,275.21627 288.34239,247.12999 274.68961,241.35352 200.94919,210.15404 115.75008,288.55298 67.728175,239.2191 25.601575,195.94159 24.341624,101.4723 66.307318,58.038745 Z"
       id="path2953"
       sodipodi:nodetypes="aaassaaaaaaaassa" />
  </g>
  <g
     inkscape:groupmode="layer"
     id="layer3"
     inkscape:label="PowerUpsTime"
     style="display:inline"
     sodipodi:insensitive="true">
    <ellipse
       style="display:inline;fill:#008000;stroke:#b3b3b3;stroke-width:0.345958;stroke-miterlimit:4;stroke-dasharray:none;stop-color:#000000"
       id="path852-7-3-6"
       cx="370.1864"
       cy="388.24274"
       rx="10.591736"
       ry="9.7844038" />
    <ellipse
       style="display:inline;fill:#008000;stroke:#b3b3b3;stroke-width:0.345958;stroke-miterlimit:4;stroke-dasharray:none;stop-color:#000000"
       id="path852-7-3-6-2"
       cx="465.89862"
       cy="235.08522"
       rx="10.591736"
       ry="9.7844038" />
    <ellipse
       style="display:inline;fill:#008000;stroke:#b3b3b3;stroke-width:0.345958;stroke-miterlimit:4;stroke-dasharray:none;stop-color:#000000"
       id="path852-7-3-6-3"
       cx="60.70023"
       cy="383.21939"
       rx="10.591736"
       ry="9.7844038" />
    <ellipse
       style="display:inline;fill:#008000;stroke:#b3b3b3;stroke-width:0.345958;stroke-miterlimit:4;stroke-dasharray:none;stop-color:#000000"
       id="path852-7-3-6-3-6"
       cx="181.12756"
       cy="394.25504"
       rx="10.591736"
       ry="9.7844038" />
  </g>
  <g
     inkscape:groupmode="layer"
     id="layer7"
     inkscape:label="PowerUpsSpeed"
     style="display:inline"
     sodipodi:insensitive="true">
    <ellipse
       style="display:inline;fill:#008000;stroke:#b3b3b3;stroke-width:0.345958;stroke-miterlimit:4;stroke-dasharray:none;stop-color:#000000"
       id="path852-7-3-6-5"
       cx="432.7164"
       cy="145.50865"
       rx="10.591736"
       ry="9.7844038" />
    <ellipse
       style="display:inline;fill:#008000;stroke:#b3b3b3;stroke-width:0.345958;stroke-miterlimit:4;stroke-dasharray:none;stop-color:#000000"
       id="path852-7-3-6-5-5"
       cx="225.49411"
       cy="39.729919"
       rx="10.591736"
       ry="9.7844038" />
    <ellipse
       style="display:inline;fill:#008000;stroke:#b3b3b3;stroke-width:0.345958;stroke-miterlimit:4;stroke-dasharray:none;stop-color:#000000"
       id="path852-7-3-6-7-6"
       cx="199.0025"
       cy="282.92554"
       rx="10.591736"
       ry="9.7844038" />
  </g>
  <g
     inkscape:label="ObstaclesTime"
     inkscape:groupmode="layer"
     id="layer1"
     style="display:inline"
     sodipodi:insensitive="true">
    <ellipse
       style="display:inline;fill:#ff0000;stroke:#b3b3b3;stroke-width:0.336422;stroke-miterlimit:4;stroke-dasharray:none;stop-color:#000000"
       id="path852-8-9-3-7"
       cx="50.650688"
       cy="223.87416"
       rx="10.265724"
       ry="9.48283" />
    <ellipse
       style="display:inline;fill:#ff0000;stroke:#b3b3b3;stroke-width:0.336422;stroke-miterlimit:4;stroke-dasharray:none;stop-color:#000000"
       id="path852-8-9-3-7-5"
       cx="452.20242"
       cy="191.31535"
       rx="10.265724"
       ry="9.48283" />
    <ellipse
       style="display:inline;fill:#ff0000;stroke:#b3b3b3;stroke-width:0.336422;stroke-miterlimit:4;stroke-dasharray:none;stop-color:#000000"
       id="path852-8-9-3-7-5-6"
       cx="481.82492"
       cy="331.50052"
       rx="10.265724"
       ry="9.48283" />
    <ellipse
       style="display:inline;fill:#ff0000;stroke:#b3b3b3;stroke-width:0.336422;stroke-miterlimit:4;stroke-dasharray:none;stop-color:#000000"
       id="path852-8-9-3-7-5-6-5"
       cx="301.7326"
       cy="357.56924"
       rx="10.265724"
       ry="9.48283" />
    <ellipse
       style="display:inline;fill:#ff0000;stroke:#b3b3b3;stroke-width:0.336422;stroke-miterlimit:4;stroke-dasharray:none;stop-color:#000000"
       id="path852-8-9-3-7-5-6-3"
       cx="92.286751"
       cy="462.85068"
       rx="10.265724"
       ry="9.48283" />
    <ellipse
       style="display:inline;fill:#ff0000;stroke:#b3b3b3;stroke-width:0.336422;stroke-miterlimit:4;stroke-dasharray:none;stop-color:#000000"
       id="path852-8-9-3-7-5-7"
       cx="362.71478"
       cy="54.234867"
       rx="10.265724"
       ry="9.48283" />
    <ellipse
       style="display:inline;fill:#ff0000;stroke:#b3b3b3;stroke-width:0.336422;stroke-miterlimit:4;stroke-dasharray:none;stop-color:#000000"
       id="path852-8-9-3-7-5-7-9"
       cx="46.172604"
       cy="105.23058"
       rx="10.265724"
       ry="9.48283" />
  </g>
  <g
     inkscape:groupmode="layer"
     id="layer8"
     inkscape:label="ObstaclesInvCont"
     style="display:inline"
     sodipodi:insensitive="true">
    <ellipse
       style="display:inline;fill:#ff0000;stroke:#b3b3b3;stroke-width:0.336422;stroke-miterlimit:4;stroke-dasharray:none;stop-color:#000000"
       id="path852-8-9-3-7-3"
       cx="242.44684"
       cy="124.58445"
       rx="10.265724"
       ry="9.48283" />
    <ellipse
       style="display:inline;fill:#ff0000;stroke:#b3b3b3;stroke-width:0.336422;stroke-miterlimit:4;stroke-dasharray:none;stop-color:#000000"
       id="path852-8-9-3-7-3-3"
       cx="97.765923"
       cy="309.51974"
       rx="10.265724"
       ry="9.48283" />
  </g>
  <g
     inkscape:groupmode="layer"
     id="layer4"
     inkscape:label="Start"
     style="display:inline"
     sodipodi:insensitive="true">
    <path
       style="fill:#00ffff;stroke:#5e2911;stroke-width:2.24551;stroke-linecap:butt;stroke-linejoin:miter;stroke-miterlimit:4;stroke-dasharray:none;stroke-opacity:1;marker-end:url(#Arrow2Lend)"
       d="M 165.24689,246.02372 205.14639,237.38737"
       id="path970"
       sodipodi:nodetypes="cc" />
  </g>
  <g
     inkscape:groupmode="layer"
     id="layer5"
     inkscape:label="Routes"
     style="display:inline">
    <path
       style="fill:none;stroke:#000000;stroke-width:1px;stroke-linecap:butt;stroke-linejoin:miter;stroke-opacity:1"
       d="M 165.24689,246.02372 190.05932,236.76882 222.27277,231.39991 257.17067,232.47369 274.88806,237.30571 284.5521,248.58042 286.16277,264.68714 279.72008,281.86764 262.00268,293.14235 234.62126,294.21613 198.64958,287.77344 150.32941,292.06857 118.11596,309.24907 73.554032,352.20033 53.689075,387.63512 51.541512,426.29125 63.353108,448.30377 82.144284,453.67268 107.91504,447.22999 153.55075,420.38545 211.53495,365.08571 244.28529,344.14697 266.29781,339.31495 290.45789,340.92562 313.5442,346.29453 353.27411,372.60218 389.78268,406.42629 412.33209,414.47966 439.71352,410.18453 461.72604,390.85646 470.85318,330.18781 466.55806,248.58042 440.25041,139.59159 400.5205,67.648234 381.19243,53.152184 363.47503,51.541512 345.75764,62.279327 338.77806,91.271427 315.69176,148.18185 266.8347,181.46907 213.14563,185.7642 200.79714,181.46907 197.0389,168.58369 210.46117,147.64496 241.06394,118.11596 261.46579,89.123864 263.07647,70.332688 251.26487,51.004621 210.99806,34.361008 145.49739,26.307647 72.480251,45.098823 39.193024,95.029662 31.139663,151.40319 39.193024,202.40781 64.96378,241.06394 113.28395,254.48621 Z"
       id="path149" />
  </g>
</svg>
