<?xml version="1.0" encoding="UTF-8" standalone="no"?>
<svg
   width="512"
   height="512"
   viewBox="0 0 512 512"
   version="1.1"
   id="svg8"
   inkscape:version="1.1.1 (3bf5ae0d25, 2021-09-20)"
   sodipodi:docname="ComplexTrack.svg"
   xmlns:inkscape="http://www.inkscape.org/namespaces/inkscape"
   xmlns:sodipodi="http://sodipodi.sourceforge.net/DTD/sodipodi-0.dtd"
   xmlns="http://www.w3.org/2000/svg"
   xmlns:svg="http://www.w3.org/2000/svg"
   xmlns:rdf="http://www.w3.org/1999/02/22-rdf-syntax-ns#"
   xmlns:cc="http://creativecommons.org/ns#"
   xmlns:dc="http://purl.org/dc/elements/1.1/">
  <defs
     id="defs2">
    <marker
       style="overflow:visible"
       id="Arrow2Lend"
       refX="0"
       refY="0"
       orient="auto"
       inkscape:stockid="Arrow2Lend"
       inkscape:isstock="true">
      <path
         transform="matrix(-1.1,0,0,-1.1,-1.1,0)"
         d="M 8.7185878,4.0337352 -2.2072895,0.01601326 8.7185884,-4.0017078 c -1.7454984,2.3720609 -1.7354408,5.6174519 -6e-7,8.035443 z"
         style="fill:#00ffff;fill-opacity:1;fill-rule:evenodd;stroke:#000000;stroke-width:0.625;stroke-linejoin:round;stroke-opacity:1"
         id="path993" />
    </marker>
    <marker
       style="overflow:visible"
       id="Arrow1Lend"
       refX="0"
       refY="0"
       orient="auto"
       inkscape:stockid="Arrow1Lend"
       inkscape:isstock="true">
      <path
         transform="matrix(-0.8,0,0,-0.8,-10,0)"
         style="fill:#000000;fill-opacity:1;fill-rule:evenodd;stroke:#000000;stroke-width:1pt;stroke-opacity:1"
         d="M 0,0 5,-5 -12.5,0 5,5 Z"
         id="path975" />
    </marker>
  </defs>
  <sodipodi:namedview
     id="base"
     pagecolor="#ffffff"
     bordercolor="#666666"
     borderopacity="1.0"
     inkscape:pageopacity="0.0"
     inkscape:pageshadow="2"
     inkscape:zoom="1.3170404"
     inkscape:cx="153.37419"
     inkscape:cy="277.51617"
     inkscape:document-units="px"
     inkscape:current-layer="layer5"
     inkscape:document-rotation="0"
     showgrid="false"
     units="px"
     inkscape:window-width="1920"
     inkscape:window-height="1017"
     inkscape:window-x="-8"
     inkscape:window-y="430"
     inkscape:window-maximized="1"
     showguides="false"
     inkscape:pagecheckerboard="0"
     scale-x="1"
     viewbox-width="512"
     viewbox-height="512"
     inkscape:lockguides="false" />
  <metadata
     id="metadata5">
    <rdf:RDF>
      <cc:Work
         rdf:about="">
        <dc:format>image/svg+xml</dc:format>
        <dc:type
           rdf:resource="http://purl.org/dc/dcmitype/StillImage" />
      </cc:Work>
    </rdf:RDF>
  </metadata>
  <g
     inkscape:groupmode="layer"
     id="layer2"
     inkscape:label="Track"
     style="display:none">
    <path
       style="display:inline;fill:none;stroke:#000000;stroke-width:30.634;stroke-linecap:butt;stroke-linejoin:miter;stroke-miterlimit:4;stroke-dasharray:none;stroke-opacity:1"
       d="M 66.307318,58.038745 C 108.57272,14.294991 198.30618,19.168216 248.72303,53.19793 259.46875,60.450936 263.65775,76.747574 262.308,89.641555 258.43711,126.61962 165.38209,184.82759 202.54862,183.82259 282.18547,181.66918 291.62527,171.07323 318.13828,148.54188 345.12766,125.6057 333.86918,59.594956 369.02188,55.26103 390.08011,52.664791 403.41876,82.732143 412.16334,102.06403 453.17361,192.72659 520.12368,335.55961 443.41592,398.94305 394.36363,439.47484 323.99983,336.63948 260.74231,343.52707 188.42835,351.40074 129.78717,492.40029 70.442727,450.33438 34.990206,425.2041 66.230112,356.16301 93.002444,321.93357 111.89694,297.77624 147.07674,290.82854 177.11719,284.65201 209.44026,278.00615 253.01173,309.37357 276.10813,285.80443 286.48392,275.21627 288.34239,247.12999 274.68961,241.35352 200.94919,210.15404 115.75008,288.55298 67.728175,239.2191 25.601575,195.94159 24.341624,101.4723 66.307318,58.038745 Z"
       id="path2953"
       sodipodi:nodetypes="aaassaaaaaaaassa" />
  </g>
  <g
     inkscape:groupmode="layer"
     id="layer3"
     inkscape:label="PowerUpsTime"
     style="display:none"
     sodipodi:insensitive="true">
    <ellipse
       style="display:inline;fill:#008000;stroke:#b3b3b3;stroke-width:0.345958;stroke-miterlimit:4;stroke-dasharray:none;stop-color:#000000"
       id="path852-7-3-6"
       cx="370.1864"
       cy="388.24274"
       rx="10.591736"
       ry="9.7844038" />
    <ellipse
       style="display:inline;fill:#008000;stroke:#b3b3b3;stroke-width:0.345958;stroke-miterlimit:4;stroke-dasharray:none;stop-color:#000000"
       id="path852-7-3-6-2"
       cx="465.89862"
       cy="235.08522"
       rx="10.591736"
       ry="9.7844038" />
    <ellipse
       style="display:inline;fill:#008000;stroke:#b3b3b3;stroke-width:0.345958;stroke-miterlimit:4;stroke-dasharray:none;stop-color:#000000"
       id="path852-7-3-6-3"
       cx="60.70023"
       cy="383.21939"
       rx="10.591736"
       ry="9.7844038" />
    <ellipse
       style="display:inline;fill:#008000;stroke:#b3b3b3;stroke-width:0.345958;stroke-miterlimit:4;stroke-dasharray:none;stop-color:#000000"
       id="path852-7-3-6-3-6"
       cx="181.12756"
       cy="394.25504"
       rx="10.591736"
       ry="9.7844038" />
  </g>
  <g
     inkscape:groupmode="layer"
     id="layer7"
     inkscape:label="PowerUpsSpeed"
     style="display:none"
     sodipodi:insensitive="true">
    <ellipse
       style="display:inline;fill:#008000;stroke:#b3b3b3;stroke-width:0.345958;stroke-miterlimit:4;stroke-dasharray:none;stop-color:#000000"
       id="path852-7-3-6-5"
       cx="432.7164"
       cy="145.50865"
       rx="10.591736"
       ry="9.7844038" />
    <ellipse
       style="display:inline;fill:#008000;stroke:#b3b3b3;stroke-width:0.345958;stroke-miterlimit:4;stroke-dasharray:none;stop-color:#000000"
       id="path852-7-3-6-5-5"
       cx="225.49411"
       cy="39.729919"
       rx="10.591736"
       ry="9.7844038" />
    <ellipse
       style="display:inline;fill:#008000;stroke:#b3b3b3;stroke-width:0.345958;stroke-miterlimit:4;stroke-dasharray:none;stop-color:#000000"
       id="path852-7-3-6-7-6"
       cx="199.0025"
       cy="282.92554"
       rx="10.591736"
       ry="9.7844038" />
  </g>
  <g
     inkscape:label="ObstaclesTime"
     inkscape:groupmode="layer"
     id="layer1"
     style="display:none"
     sodipodi:insensitive="true">
    <ellipse
       style="display:inline;fill:#ff0000;stroke:#b3b3b3;stroke-width:0.336422;stroke-miterlimit:4;stroke-dasharray:none;stop-color:#000000"
       id="path852-8-9-3-7"
       cx="50.650688"
       cy="223.87416"
       rx="10.265724"
       ry="9.48283" />
    <ellipse
       style="display:inline;fill:#ff0000;stroke:#b3b3b3;stroke-width:0.336422;stroke-miterlimit:4;stroke-dasharray:none;stop-color:#000000"
       id="path852-8-9-3-7-5"
       cx="452.20242"
       cy="191.31535"
       rx="10.265724"
       ry="9.48283" />
    <ellipse
       style="display:inline;fill:#ff0000;stroke:#b3b3b3;stroke-width:0.336422;stroke-miterlimit:4;stroke-dasharray:none;stop-color:#000000"
       id="path852-8-9-3-7-5-6"
       cx="481.82492"
       cy="331.50052"
       rx="10.265724"
       ry="9.48283" />
    <ellipse
       style="display:inline;fill:#ff0000;stroke:#b3b3b3;stroke-width:0.336422;stroke-miterlimit:4;stroke-dasharray:none;stop-color:#000000"
       id="path852-8-9-3-7-5-6-5"
       cx="301.7326"
       cy="357.56924"
       rx="10.265724"
       ry="9.48283" />
    <ellipse
       style="display:inline;fill:#ff0000;stroke:#b3b3b3;stroke-width:0.336422;stroke-miterlimit:4;stroke-dasharray:none;stop-color:#000000"
       id="path852-8-9-3-7-5-6-3"
       cx="92.286751"
       cy="462.85068"
       rx="10.265724"
       ry="9.48283" />
    <ellipse
       style="display:inline;fill:#ff0000;stroke:#b3b3b3;stroke-width:0.336422;stroke-miterlimit:4;stroke-dasharray:none;stop-color:#000000"
       id="path852-8-9-3-7-5-7"
       cx="362.71478"
       cy="54.234867"
       rx="10.265724"
       ry="9.48283" />
    <ellipse
       style="display:inline;fill:#ff0000;stroke:#b3b3b3;stroke-width:0.336422;stroke-miterlimit:4;stroke-dasharray:none;stop-color:#000000"
       id="path852-8-9-3-7-5-7-9"
       cx="46.172604"
       cy="105.23058"
       rx="10.265724"
       ry="9.48283" />
  </g>
  <g
     inkscape:groupmode="layer"
     id="layer8"
     inkscape:label="ObstaclesInvCont"
     style="display:none"
     sodipodi:insensitive="true">
    <ellipse
       style="display:inline;fill:#ff0000;stroke:#b3b3b3;stroke-width:0.336422;stroke-miterlimit:4;stroke-dasharray:none;stop-color:#000000"
       id="path852-8-9-3-7-3"
       cx="242.44684"
       cy="124.58445"
       rx="10.265724"
       ry="9.48283" />
    <ellipse
       style="display:inline;fill:#ff0000;stroke:#b3b3b3;stroke-width:0.336422;stroke-miterlimit:4;stroke-dasharray:none;stop-color:#000000"
       id="path852-8-9-3-7-3-3"
       cx="97.765923"
       cy="309.51974"
       rx="10.265724"
       ry="9.48283" />
  </g>
  <g
     inkscape:groupmode="layer"
     id="layer4"
     inkscape:label="Start"
     style="display:none"
     sodipodi:insensitive="true">
    <path
       style="display:inline;fill:#00ffff;stroke:#5e2911;stroke-width:2.24551;stroke-linecap:butt;stroke-linejoin:miter;stroke-miterlimit:4;stroke-dasharray:none;stroke-opacity:1;marker-end:url(#Arrow2Lend)"
       d="M 165.24689,246.02372 205.14639,237.38737"
       id="path970"
       sodipodi:nodetypes="cc"
       sodipodi:insensitive="true" />
  </g>
  <g
     inkscape:groupmode="layer"
     id="layer5"
     inkscape:label="Routes"
     style="display:inline">
    <path
       style="display:inline;fill:none;stroke:#000000;stroke-width:1px;stroke-linecap:butt;stroke-linejoin:miter;stroke-opacity:1"
       d="M 165.24689,246.02372 167.53493,245.33245 169.14414,244.89008 170.57848,244.51281 172.34193,244.01684 174.47073,243.38405 176.72806,242.6999 179.20833,241.936 182.00596,241.06395 185.23016,240.0386 188.80167,238.88498 192.53224,237.67995 196.23357,236.50037 199.83623,235.33632 203.44708,234.15718 207.14229,233.00874 210.99806,231.9368 215.02869,230.91051 219.19432,229.92763 223.48983,229.07689 227.91012,228.44701 232.57315,228.09983 237.42982,227.9887 242.22443,228.03962 246.7013,228.17857 250.85229,228.38757 254.79058,228.68945 258.44246,229.07144 261.73424,229.52079 264.5359,229.96186 266.9235,230.39717 269.13248,230.93118 271.39827,231.66836 273.82389,232.63024 276.25452,233.76245 278.53881,235.05561 280.52541,236.50037 282.1491,238.02199 283.49296,239.59986 284.62817,241.30577 285.62588,243.21151 286.44414,245.36356 287.0342,247.6925 287.45698,250.09628 287.77344,252.47287 287.98868,254.79709 288.07501,257.1136 288.0441,259.42508 287.90766,261.73424 287.66699,264.01995 287.31696,266.28118 286.85961,268.55072 286.29699,270.86138 285.66699,273.25759 284.95194,275.70329 284.07052,278.11048 282.94142,280.39119 281.54618,282.51694 279.94156,284.50927 278.15909,286.35524 276.23029,288.04189 274.2419,289.52732 272.16997,290.81421 269.87997,291.9565 267.23737,293.00812 264.16244,293.89524 260.74922,294.56203 257.12384,295.08942 253.41243,295.55836 249.64498,296.00019 245.75844,296.35938 241.73932,296.5865 237.57416,296.63214 233.21446,296.42881 228.69213,296.00609 224.11436,295.46017 219.58832,294.88724 215.09242,294.25546 210.58725,293.53317 206.15326,292.8168 201.87092,292.20279 197.82454,291.65755 193.95161,291.14528 190.11232,290.75909 186.16687,290.59212 182.18639,290.67017 178.22161,290.94961 174.10211,291.41942 169.65748,292.06857 164.84507,292.92131 159.76586,293.99888 154.46489,295.28575 148.98718,296.76636 143.28253,298.42909 137.35726,300.29912 131.34115,302.41611 125.36399,304.81972 119.32874,307.50451 113.22701,310.45925 107.32153,313.7149 101.87502,317.30243 97.0439,321.23513 92.678578,325.44635 88.582796,329.84718 84.560293,334.34871 80.575206,338.94039 76.731932,343.65925 73.044603,348.48775 69.527352,353.40833 66.145503,358.37955 62.907547,363.41549 59.892372,368.58187 57.178865,373.9444 54.7621,379.50672 52.621794,385.2186 50.813793,391.06495 49.393949,397.03071 48.380588,403.35733 47.753395,409.93934 47.510255,416.24129 47.649054,421.72768 48.042025,426.08073 48.613989,429.62132 49.441709,432.77199 50.601953,435.95529 52.15145,439.25268 54.019409,442.41453 56.091314,445.36677 58.252646,448.03533 60.390381,450.38219 62.55718,452.45152 64.887053,454.29255 67.514011,455.95447 70.434915,457.40974 73.567884,458.60434 76.928817,459.54779 80.533612,460.24959 84.433001,460.67903 88.575739,460.79942 92.824761,460.61135 97.043002,460.11537 100.99615,459.31285 104.79218,458.20002 108.8074,456.76975 113.41817,455.01491 118.91589,452.94372 125.01336,450.51643 131.21904,447.65392 137.04136,444.27709 142.24038,440.36074 147.06049,435.97265 151.7366,431.17321 156.50365,426.02281 161.01986,420.79298 165.26673,415.35781 169.96407,409.18157 175.83172,401.7285 183.67786,391.80977 192.92545,380.07002 202.21643,368.72369 210.19273,359.98525 216.05517,354.49226 220.44727,350.87036 224.175,348.31611 228.04434,346.02609 232.0475,343.88904 235.76337,342.24967 239.37796,340.98851 243.07729,339.98607 246.8523,339.2665 250.59303,338.86827 254.33412,338.69338 258.11023,338.64384 261.94379,338.65249 265.80302,338.78712 269.64119,339.1521 273.41161,339.85184 276.85562,340.84432 280.04912,342.08869 283.44721,343.69108 287.50499,345.75764 292.33187,348.45496 297.64933,351.735 303.33064,355.38192 309.24907,359.17991 315.33938,363.09424 321.67627,367.23707 328.34292,371.61289 335.42249,376.22619 343.3934,381.40792 352.06013,387.0443 360.49495,392.47276 367.77016,397.03071 373.43375,400.50212 378.03046,403.28077 382.1277,405.61884 386.29289,407.76852 390.63132,409.83949 394.83835,411.69965 398.86644,413.23847 402.66806,414.34543 406.10981,414.97688 409.21373,415.25342 412.16549,415.31085 415.15077,415.28499 418.2225,415.23642 421.27362,415.08824 424.24977,414.76999 427.09659,414.21121 429.74582,413.43034 432.22487,412.47349 434.6229,411.31172 437.02907,409.91608 439.40125,408.28535 441.6867,406.42977 443.95868,404.33756 446.29043,401.99695 448.72257,399.35095 451.18423,396.41419 453.58144,393.28236 455.82024,390.05113 457.80007,386.97175 459.58672,383.92523 461.33568,380.45187 463.20249,376.09197 465.12501,370.75934 466.95564,364.66927 468.72171,357.8143 470.45052,350.18699 472.16088,341.65828 473.77314,332.27195 475.16699,322.27977 476.22209,311.93352 476.97045,301.09849 477.41684,289.72122 477.40007,278.1754 476.75898,266.8347 475.34708,255.65672 473.29624,244.52751 470.86276,233.71341 468.30295,223.48077 465.70103,214.16768 462.95127,205.54609 460.02513,197.03315 456.89403,188.04598 453.55965,178.40574 450.02626,168.43523 446.26919,158.30406 442.26375,148.18185 437.91499,137.93684 433.26133,127.54508 428.4782,117.33789 423.74102,107.64659 419.00478,98.188668 414.22321,88.907334 409.56986,80.472488 405.21829,73.554032 401.42084,68.45393 398.18319,64.693902 395.30885,61.773482 392.60136,59.192205 390.21588,56.937317 388.23617,55.198436 386.3586,53.778656 384.27955,52.48107 381.93072,51.252548 379.49166,50.205135 377.03054,49.389687 374.61552,48.857058 372.33668,48.600872 370.16964,48.581718 368.01087,48.8009 365.75682,49.259726 363.33352,50.028204 360.84793,51.099032 358.46788,52.357544 356.36123,53.689075 354.64677,54.970801 353.21118,56.258156 351.87417,57.703865 350.45543,59.46065 348.95536,61.550364 347.49398,63.908882 346.07043,66.55996 344.68386,69.527352 343.41691,72.755966 342.28219,76.256266 341.17387,80.150344 339.98607,84.560293 338.71472,89.689889 337.43359,95.420936 336.15358,101.39257 334.8856,107.24393 333.6866,113.12397 332.53274,119.1434 331.31375,124.88401 329.91936,129.92756 328.49481,134.02562 327.11369,137.45217 325.5583,140.57265 323.6109,143.7525 321.24972,147.01981 318.57965,150.16302 315.57297,153.1881 312.20197,156.10098 308.49819,158.78787 304.46711,161.23495 300.04189,163.59816 295.15569,166.03346 289.54466,168.62754 283.31857,171.2442 276.97102,173.70506 270.9956,175.83172 265.52714,177.54622 260.31533,178.97341 255.27608,180.23909 250.32531,181.46907 245.33564,182.72487 240.38815,183.93292 235.71144,185.01638 231.53413,185.89842 228.0258,186.58296 225.03451,187.12474 222.30658,187.52313 219.58832,187.77754 216.78737,187.88892 214.05584,187.86998 211.50676,187.7377 209.25317,187.50909 207.40961,187.26084 205.89065,186.99518 204.5094,186.61736 203.07892,186.03264 201.53074,185.17891 199.99804,184.11783 198.59645,182.94038 197.44157,181.73752 196.57091,180.60695 195.91147,179.51642 195.41307,178.36199 195.02556,177.03972 194.76925,175.56672 194.69087,174.00446 194.77983,172.31561 195.02556,170.46281 195.43902,168.46319 196.05359,166.35068 196.89237,164.11312 197.97846,161.73834 199.34396,159.23088 200.99517,156.62677 202.91648,153.96111 205.09227,151.26897 207.45308,148.67684 210.04067,146.15549 213.0063,143.50642 216.50119,140.53115 220.75008,137.20831 225.6323,133.66676 230.78099,129.9334 235.82926,126.0351 240.96472,121.93639 246.28107,117.63412 251.27065,113.20366 255.42577,108.72038 258.65306,104.20594 261.24617,99.723546 263.27798,95.410887 264.82136,91.40565 265.87377,87.833397 266.48329,84.65623 266.79874,81.766651 266.96892,79.057162 267.06946,76.61988 267.04513,74.485982 266.84847,72.456556 266.43203,70.332688 265.81561,68.098953 265.00601,65.875229 263.93631,63.66556 262.53958,61.47399 260.92911,59.482517 259.08933,57.68464 256.75999,55.801653 253.68088,53.554852 249.56727,50.849283 244.58539,47.933237 239.15146,45.042879 233.6817,42.414369 228.50829,40.154996 223.34458,38.137125 217.67852,36.244535 210.99806,34.361008 202.73481,32.497495 193.30106,30.794856 183.65578,29.331732 174.75794,28.186764 166.88868,27.352822 159.53931,26.766002 152.48413,26.419785 145.49739,26.307647 138.66045,26.333883 132.05627,26.52029 125.46151,27.036598 118.65285,28.052542 111.43095,29.673987 104.00204,31.814651 96.751178,34.356046 90.063423,37.179684 84.00622,40.206493 78.399098,43.45562 73.25523,46.955903 68.587793,50.736176 64.457426,54.744463 60.846232,58.915585 57.649585,63.258572 54.762856,67.782457 52.282708,72.438864 50.233474,77.204054 48.402036,82.124018 46.575272,87.244746 44.689371,92.611171 42.871222,98.186705 41.19376,103.89506 39.729915,109.65993 38.478536,115.55695 37.412443,121.5862 36.565527,127.55812 35.97168,133.28313 35.6173,138.49591 35.471497,143.35687 35.54223,148.31497 35.837457,153.8192 36.449222,160.15886 37.383075,167.02387 38.517233,173.96412 39.729915,180.52951 40.977367,186.68969 42.314881,192.6526 43.769251,198.32553 45.367268,203.61582 47.06453,208.40159 48.829716,212.76388 50.709241,216.91438 52.749516,221.06476 55.018898,225.34429 57.470414,229.60938 59.97749,233.66239 62.413549,237.30571 64.702195,240.51664 66.896472,243.4016 69.063962,245.95663 71.272247,248.17775 73.328845,249.99945 75.221154,251.46374 77.286572,252.72793 79.862499,253.94932 83.154702,255.06702 86.939617,255.94587 90.910653,256.63178 94.761217,257.17067 98.315869,257.55831 101.76016,257.77963 105.329,257.86425 109.25727,257.84178 113.60913,257.72236 118.25306,257.46643 123.13045,257.02906 128.18267,256.36533 133.61351,255.3731 139.36799,254.08624 144.99938,252.6638 150.06096,251.26487 154.51273,249.85991 158.57007,248.41571 162.16935,247.0858 Z"
       id="path253"
       sodipodi:nodetypes="ccccccccccccccccccccccccccccccccccccccccccccccccccccccccccccccccccccccccccccccccccccccccccccccccccccccccccccccccccccccccccccccccccccccccccccccccccccccccccccccccccccccccccccccccccccccccccccccccccccccccccccccccccccccccccccccccccccccccccccccccccccccccccccccccccccccccccccccccccccccccccccccccccccccccccccccccccccccccccccccccccccccccccccccccccccccccccccccccccccccccccccccccccccccccccccccccccccccccccccccccccccccccccccccccccccccccccccccccccccccccccccccccccccccccccccccccccccccccccccc" />
  </g>
</svg>
